# xmcd CD database file
#
# Track frame offsets:
#	150
#	10650
#	23475
#	37500
#	49107
#	63300
#	73725
#	86754
#	98625
#	110700
#	122454
#	136325
#	147525
#	158760
#	172075
#	186922
#	196120
#	209427
#	222850
#	233522
#
# Disc length: 3287 seconds
#
# Revision: 0
# Processed by: cddbd v1.5PL3 Copyright (c) Steve Scherf et al.
# Submitted via: CDex 1.51
#
DISCID=0e0cd514
DTITLE=Reg Lindsay - The Rodeo Years
DYEAR=1995
DGENRE=Country
TTITLE0=Out on the lone prairie
TTITLE1=From forty to sixty five
TTITLE2=Driftwood on the River
TTITLE3=Hearts and Flowers
TTITLE4=I'm Nobody's Child
TTITLE5=Jimmie the Kid
TTITLE6=Mysteries of Life
TTITLE7=Open Up Your Heart
TTITLE8=My Baby Doll
TTITLE9=When the Wagon Was New
TTITLE10=The Carribean
TTITLE11=The "57" That Rolls To My Hometown
TTITLE12=The Mansion on the Hill
TTITLE13=Put Your Little Head on Daddy's Shoulder
TTITLE14=Kaw-Liga
TTITLE15=I'll Keep On Loving You
TTITLE16=Bushland Sweetheart
TTITLE17=Blue Velvet Band
TTITLE18=Country Mile
TTITLE19=Suvia Bay
EXTD=YEAR: 1995
EXTT0=
EXTT1=
EXTT2=
EXTT3=
EXTT4=
EXTT5=
EXTT6=
EXTT7=
EXTT8=
EXTT9=
EXTT10=
EXTT11=
EXTT12=
EXTT13=
EXTT14=
EXTT15=
EXTT16=
EXTT17=
EXTT18=
EXTT19=
PLAYORDER=
